<svg width="50" height="50" viewBox="0 0 50 50" fill="none" xmlns="http://www.w3.org/2000/svg">
<rect x="0.5" y="1.47526" width="47.7629" height="47.7629" fill="#65A30D"/>
<rect x="0.5" y="1.47526" width="47.7629" height="47.7629" stroke="black"/>
<path d="M23.0514 39.8585C24.7316 40.47 26.3876 40.3953 28.0196 39.6343C29.6515 38.8733 30.7733 37.6527 31.3848 35.9726C31.9963 34.2925 31.9216 32.6364 31.1606 31.0045C30.3996 29.3725 29.179 28.2508 27.4989 27.6393C26.9134 27.4262 26.351 27.3079 25.8117 27.2846C25.2563 27.2266 24.6985 27.2542 24.1383 27.3675L30.0034 11.2534L20.8389 7.91778L18.6152 14.0274L24.7248 16.2511L19.1655 31.5252C18.554 33.2053 18.6288 34.8613 19.3897 36.4933C20.1507 38.1252 21.3713 39.247 23.0514 39.8585Z" fill="#1D1B20"/>
</svg>
